<svg xmlns="http://www.w3.org/2000/svg" viewBox="0 0 1200 675" role="img" aria-labelledby="title desc">
  <title id="title">Navigation HUD preview</title>
  <desc id="desc">A stylized mobile navigation map with weather and step guidance.</desc>
  <rect width="1200" height="675" fill="#0f172a"/>
  <g opacity="0.65" stroke="#334155" stroke-width="4">
    <path d="M0 130h1200M0 270h1200M0 410h1200M0 550h1200"/>
    <path d="M170 0v675M350 0v675M530 0v675M710 0v675M890 0v675M1070 0v675"/>
  </g>
  <g fill="none" stroke="#475569" stroke-width="12" stroke-linecap="round">
    <path d="M130 560c140-92 229-45 330-146s202-185 379-123 208-32 278-114"/>
    <path d="M177 104c179 98 297 44 438 94s212 97 414 22"/>
  </g>
  <path d="M155 550c129-78 218-44 320-139s193-171 350-116" fill="none" stroke="#38bdf8" stroke-width="20" stroke-linecap="round"/>
  <circle cx="476" cy="410" r="30" fill="#ffffff"/>
  <path d="M476 355l28 89-28-15-28 15z" fill="#2563eb"/>
  <rect x="72" y="54" width="520" height="132" rx="24" fill="#020617" opacity="0.9" stroke="#1e293b"/>
  <text x="112" y="108" fill="#ffffff" font-family="Inter, Arial, sans-serif" font-size="30" font-weight="700">Continue on I-40 E</text>
  <text x="112" y="151" fill="#bae6fd" font-family="Inter, Arial, sans-serif" font-size="22">Next waypoint: light rain, 66F</text>
  <rect x="708" y="448" width="392" height="150" rx="24" fill="#ffffff" opacity="0.94"/>
  <text x="748" y="506" fill="#0f172a" font-family="Inter, Arial, sans-serif" font-size="30" font-weight="700">Upcoming</text>
  <text x="748" y="553" fill="#475569" font-family="Inter, Arial, sans-serif" font-size="22">Exit in 12 mi</text>
</svg>
